<?xml version="1.0" encoding="UTF-8"?>
<svg xmlns="http://www.w3.org/2000/svg" width="1200" height="957" viewBox="0 0 1200 957">
<rect width="1200" height="957" fill="#f0f0f1"/>
<rect x="0" y="0" width="1200" height="125" fill="white"/>
<line x1="0" y1="125" x2="1200" y2="125" stroke="#dddddd" stroke-width="1"/>
<rect x="20" y="16" width="88" height="88" rx="6" fill="#0066CC"/>
<text x="64" y="54" text-anchor="middle" font-family="Titillium Web, sans-serif" font-size="9" font-weight="bold" fill="white">DESIGN</text>
<text x="64" y="70" text-anchor="middle" font-family="Titillium Web, sans-serif" font-size="9" font-weight="bold" fill="white">LABORATORI</text>
<text x="64" y="86" text-anchor="middle" font-family="Titillium Web, sans-serif" font-size="9" font-weight="bold" fill="white">ITALIA</text>
<text x="124" y="44" font-family="Titillium Web, sans-serif" font-size="20" font-weight="bold" fill="#1a1a1a">SitoFederato &#8212; Pannello di gestione</text>
<text x="124" y="66" font-family="Titillium Web, sans-serif" font-size="13" fill="#555555">Tema WordPress per laboratori e centri di ricerca &#183; Scuola Normale Superiore &#183; v1.7.7</text>
<text x="124" y="86" font-family="Titillium Web, sans-serif" font-size="12" fill="#777777">Gestisci i contenuti del sito dalla dashboard.</text>
<rect x="22" y="148" width="264" height="185" rx="5" fill="#00000018"/>
<rect x="20" y="145" width="264" height="185" rx="5" fill="white" stroke="#dddddd" stroke-width="1"/>
<path d="M 25,145 H 279 Q 284,145 284,150 V 183 H 20 V 150 Q 20,145 25,145 Z" fill="#003D8F"/>
<text x="32" y="169" font-family="Titillium Web, sans-serif" font-size="12" font-weight="bold" fill="white">Persone</text>
<text x="30" y="206" font-family="Titillium Web, sans-serif" font-size="9" fill="#888888" font-weight="bold" letter-spacing="0.8">CONTENUTI</text>
<text x="34" y="225" font-family="Titillium Web, sans-serif" font-size="11" fill="#0066CC">&#8594; Elenco persone</text>
<text x="34" y="240" font-family="Titillium Web, sans-serif" font-size="11" fill="#0066CC">&#8594; Aggiungi persona</text>
<text x="34" y="255" font-family="Titillium Web, sans-serif" font-size="11" fill="#0066CC">&#8594; Tipologia persone</text>
<line x1="30" y1="263" x2="274" y2="263" stroke="#eeeeee" stroke-width="1"/>
<text x="30" y="276" font-family="Titillium Web, sans-serif" font-size="9" fill="#888888" font-weight="bold" letter-spacing="0.8">TASSONOMIE</text>
<text x="34" y="295" font-family="Titillium Web, sans-serif" font-size="11" fill="#0066CC">&#8594; Tag</text>
<text x="34" y="310" font-family="Titillium Web, sans-serif" font-size="11" fill="#0066CC">&#8594; Struttura</text>
<rect x="300" y="148" width="264" height="185" rx="5" fill="#00000018"/>
<rect x="298" y="145" width="264" height="185" rx="5" fill="white" stroke="#dddddd" stroke-width="1"/>
<path d="M 303,145 H 557 Q 562,145 562,150 V 183 H 298 V 150 Q 298,145 303,145 Z" fill="#003D8F"/>
<text x="310" y="169" font-family="Titillium Web, sans-serif" font-size="12" font-weight="bold" fill="white">Tipologie persone</text>
<text x="308" y="206" font-family="Titillium Web, sans-serif" font-size="9" fill="#888888" font-weight="bold" letter-spacing="0.8">CONTENUTI</text>
<text x="312" y="225" font-family="Titillium Web, sans-serif" font-size="11" fill="#0066CC">&#8594; Elenco tipologie</text>
<text x="312" y="240" font-family="Titillium Web, sans-serif" font-size="11" fill="#0066CC">&#8594; Aggiungi tipologia</text>
<rect x="578" y="148" width="264" height="185" rx="5" fill="#00000018"/>
<rect x="576" y="145" width="264" height="185" rx="5" fill="white" stroke="#dddddd" stroke-width="1"/>
<path d="M 581,145 H 835 Q 840,145 840,150 V 183 H 576 V 150 Q 576,145 581,145 Z" fill="#005D2E"/>
<text x="588" y="169" font-family="Titillium Web, sans-serif" font-size="12" font-weight="bold" fill="white">Indirizzi di ricerca</text>
<text x="586" y="206" font-family="Titillium Web, sans-serif" font-size="9" fill="#888888" font-weight="bold" letter-spacing="0.8">CONTENUTI</text>
<text x="590" y="225" font-family="Titillium Web, sans-serif" font-size="11" fill="#0066CC">&#8594; Elenco indirizzi</text>
<text x="590" y="240" font-family="Titillium Web, sans-serif" font-size="11" fill="#0066CC">&#8594; Aggiungi indirizzo</text>
<line x1="586" y1="248" x2="830" y2="248" stroke="#eeeeee" stroke-width="1"/>
<text x="586" y="261" font-family="Titillium Web, sans-serif" font-size="9" fill="#888888" font-weight="bold" letter-spacing="0.8">TASSONOMIE</text>
<text x="590" y="280" font-family="Titillium Web, sans-serif" font-size="11" fill="#0066CC">&#8594; Tag</text>
<rect x="856" y="148" width="264" height="185" rx="5" fill="#00000018"/>
<rect x="854" y="145" width="264" height="185" rx="5" fill="white" stroke="#dddddd" stroke-width="1"/>
<path d="M 859,145 H 1113 Q 1118,145 1118,150 V 183 H 854 V 150 Q 854,145 859,145 Z" fill="#005D2E"/>
<text x="866" y="169" font-family="Titillium Web, sans-serif" font-size="12" font-weight="bold" fill="white">Progetti</text>
<text x="864" y="206" font-family="Titillium Web, sans-serif" font-size="9" fill="#888888" font-weight="bold" letter-spacing="0.8">CONTENUTI</text>
<text x="868" y="225" font-family="Titillium Web, sans-serif" font-size="11" fill="#0066CC">&#8594; Elenco progetti</text>
<text x="868" y="240" font-family="Titillium Web, sans-serif" font-size="11" fill="#0066CC">&#8594; Aggiungi progetto</text>
<line x1="864" y1="248" x2="1108" y2="248" stroke="#eeeeee" stroke-width="1"/>
<text x="864" y="261" font-family="Titillium Web, sans-serif" font-size="9" fill="#888888" font-weight="bold" letter-spacing="0.8">TASSONOMIE</text>
<text x="868" y="280" font-family="Titillium Web, sans-serif" font-size="11" fill="#0066CC">&#8594; Tag</text>
<rect x="22" y="347" width="264" height="185" rx="5" fill="#00000018"/>
<rect x="20" y="344" width="264" height="185" rx="5" fill="white" stroke="#dddddd" stroke-width="1"/>
<path d="M 25,344 H 279 Q 284,344 284,349 V 382 H 20 V 349 Q 20,344 25,344 Z" fill="#005D2E"/>
<text x="32" y="368" font-family="Titillium Web, sans-serif" font-size="12" font-weight="bold" fill="white">Pubblicazioni</text>
<text x="30" y="405" font-family="Titillium Web, sans-serif" font-size="9" fill="#888888" font-weight="bold" letter-spacing="0.8">CONTENUTI</text>
<text x="34" y="424" font-family="Titillium Web, sans-serif" font-size="11" fill="#0066CC">&#8594; Elenco pubblicazioni</text>
<text x="34" y="439" font-family="Titillium Web, sans-serif" font-size="11" fill="#0066CC">&#8594; Aggiungi pubblicazione</text>
<line x1="30" y1="447" x2="274" y2="447" stroke="#eeeeee" stroke-width="1"/>
<text x="30" y="460" font-family="Titillium Web, sans-serif" font-size="9" fill="#888888" font-weight="bold" letter-spacing="0.8">TASSONOMIE</text>
<text x="34" y="479" font-family="Titillium Web, sans-serif" font-size="11" fill="#0066CC">&#8594; Tag</text>
<text x="34" y="494" font-family="Titillium Web, sans-serif" font-size="11" fill="#0066CC">&#8594; Tipo pubblicazione</text>
<rect x="300" y="347" width="264" height="185" rx="5" fill="#00000018"/>
<rect x="298" y="344" width="264" height="185" rx="5" fill="white" stroke="#dddddd" stroke-width="1"/>
<path d="M 303,344 H 557 Q 562,344 562,349 V 382 H 298 V 349 Q 298,344 303,344 Z" fill="#A93226"/>
<text x="310" y="368" font-family="Titillium Web, sans-serif" font-size="12" font-weight="bold" fill="white">Notizie</text>
<text x="308" y="405" font-family="Titillium Web, sans-serif" font-size="9" fill="#888888" font-weight="bold" letter-spacing="0.8">CONTENUTI</text>
<text x="312" y="424" font-family="Titillium Web, sans-serif" font-size="11" fill="#0066CC">&#8594; Elenco notizie</text>
<text x="312" y="439" font-family="Titillium Web, sans-serif" font-size="11" fill="#0066CC">&#8594; Aggiungi notizia</text>
<line x1="308" y1="447" x2="552" y2="447" stroke="#eeeeee" stroke-width="1"/>
<text x="308" y="460" font-family="Titillium Web, sans-serif" font-size="9" fill="#888888" font-weight="bold" letter-spacing="0.8">TASSONOMIE</text>
<text x="312" y="479" font-family="Titillium Web, sans-serif" font-size="11" fill="#0066CC">&#8594; Categorie</text>
<text x="312" y="494" font-family="Titillium Web, sans-serif" font-size="11" fill="#0066CC">&#8594; Tag</text>
<rect x="578" y="347" width="264" height="185" rx="5" fill="#00000018"/>
<rect x="576" y="344" width="264" height="185" rx="5" fill="white" stroke="#dddddd" stroke-width="1"/>
<path d="M 581,344 H 835 Q 840,344 840,349 V 382 H 576 V 349 Q 576,344 581,344 Z" fill="#A93226"/>
<text x="588" y="368" font-family="Titillium Web, sans-serif" font-size="12" font-weight="bold" fill="white">Eventi</text>
<text x="586" y="405" font-family="Titillium Web, sans-serif" font-size="9" fill="#888888" font-weight="bold" letter-spacing="0.8">CONTENUTI</text>
<text x="590" y="424" font-family="Titillium Web, sans-serif" font-size="11" fill="#0066CC">&#8594; Elenco eventi</text>
<text x="590" y="439" font-family="Titillium Web, sans-serif" font-size="11" fill="#0066CC">&#8594; Aggiungi evento</text>
<line x1="586" y1="447" x2="830" y2="447" stroke="#eeeeee" stroke-width="1"/>
<text x="586" y="460" font-family="Titillium Web, sans-serif" font-size="9" fill="#888888" font-weight="bold" letter-spacing="0.8">TASSONOMIE</text>
<text x="590" y="479" font-family="Titillium Web, sans-serif" font-size="11" fill="#0066CC">&#8594; Categorie</text>
<text x="590" y="494" font-family="Titillium Web, sans-serif" font-size="11" fill="#0066CC">&#8594; Tag</text>
<rect x="856" y="347" width="264" height="185" rx="5" fill="#00000018"/>
<rect x="854" y="344" width="264" height="185" rx="5" fill="white" stroke="#dddddd" stroke-width="1"/>
<path d="M 859,344 H 1113 Q 1118,344 1118,349 V 382 H 854 V 349 Q 854,344 859,344 Z" fill="#A93226"/>
<text x="866" y="368" font-family="Titillium Web, sans-serif" font-size="12" font-weight="bold" fill="white">Banner</text>
<text x="864" y="405" font-family="Titillium Web, sans-serif" font-size="9" fill="#888888" font-weight="bold" letter-spacing="0.8">CONTENUTI</text>
<text x="868" y="424" font-family="Titillium Web, sans-serif" font-size="11" fill="#0066CC">&#8594; Elenco banner</text>
<text x="868" y="439" font-family="Titillium Web, sans-serif" font-size="11" fill="#0066CC">&#8594; Aggiungi banner</text>
<rect x="22" y="546" width="264" height="185" rx="5" fill="#00000018"/>
<rect x="20" y="543" width="264" height="185" rx="5" fill="white" stroke="#dddddd" stroke-width="1"/>
<path d="M 25,543 H 279 Q 284,543 284,548 V 581 H 20 V 548 Q 20,543 25,543 Z" fill="#4A1777"/>
<text x="32" y="567" font-family="Titillium Web, sans-serif" font-size="12" font-weight="bold" fill="white">Brevetti</text>
<text x="30" y="604" font-family="Titillium Web, sans-serif" font-size="9" fill="#888888" font-weight="bold" letter-spacing="0.8">CONTENUTI</text>
<text x="34" y="623" font-family="Titillium Web, sans-serif" font-size="11" fill="#0066CC">&#8594; Elenco brevetti</text>
<text x="34" y="638" font-family="Titillium Web, sans-serif" font-size="11" fill="#0066CC">&#8594; Aggiungi brevetto</text>
<line x1="30" y1="646" x2="274" y2="646" stroke="#eeeeee" stroke-width="1"/>
<text x="30" y="659" font-family="Titillium Web, sans-serif" font-size="9" fill="#888888" font-weight="bold" letter-spacing="0.8">TASSONOMIE</text>
<text x="34" y="678" font-family="Titillium Web, sans-serif" font-size="11" fill="#0066CC">&#8594; Categorie</text>
<text x="34" y="693" font-family="Titillium Web, sans-serif" font-size="11" fill="#0066CC">&#8594; Tag</text>
<text x="34" y="708" font-family="Titillium Web, sans-serif" font-size="11" fill="#0066CC">&#8594; Area tematica</text>
<rect x="300" y="546" width="264" height="185" rx="5" fill="#00000018"/>
<rect x="298" y="543" width="264" height="185" rx="5" fill="white" stroke="#dddddd" stroke-width="1"/>
<path d="M 303,543 H 557 Q 562,543 562,548 V 581 H 298 V 548 Q 298,543 303,543 Z" fill="#4A1777"/>
<text x="310" y="567" font-family="Titillium Web, sans-serif" font-size="12" font-weight="bold" fill="white">Risorse tecniche</text>
<text x="308" y="604" font-family="Titillium Web, sans-serif" font-size="9" fill="#888888" font-weight="bold" letter-spacing="0.8">CONTENUTI</text>
<text x="312" y="623" font-family="Titillium Web, sans-serif" font-size="11" fill="#0066CC">&#8594; Elenco risorse</text>
<text x="312" y="638" font-family="Titillium Web, sans-serif" font-size="11" fill="#0066CC">&#8594; Aggiungi risorsa</text>
<line x1="308" y1="646" x2="552" y2="646" stroke="#eeeeee" stroke-width="1"/>
<text x="308" y="659" font-family="Titillium Web, sans-serif" font-size="9" fill="#888888" font-weight="bold" letter-spacing="0.8">TASSONOMIE</text>
<text x="312" y="678" font-family="Titillium Web, sans-serif" font-size="11" fill="#0066CC">&#8594; Categorie</text>
<text x="312" y="693" font-family="Titillium Web, sans-serif" font-size="11" fill="#0066CC">&#8594; Tag</text>
<text x="312" y="708" font-family="Titillium Web, sans-serif" font-size="11" fill="#0066CC">&#8594; Tipo risorsa</text>
<rect x="578" y="546" width="264" height="185" rx="5" fill="#00000018"/>
<rect x="576" y="543" width="264" height="185" rx="5" fill="white" stroke="#dddddd" stroke-width="1"/>
<path d="M 581,543 H 835 Q 840,543 840,548 V 581 H 576 V 548 Q 576,543 581,543 Z" fill="#4A1777"/>
<text x="588" y="567" font-family="Titillium Web, sans-serif" font-size="12" font-weight="bold" fill="white">Spin-off</text>
<text x="586" y="604" font-family="Titillium Web, sans-serif" font-size="9" fill="#888888" font-weight="bold" letter-spacing="0.8">CONTENUTI</text>
<text x="590" y="623" font-family="Titillium Web, sans-serif" font-size="11" fill="#0066CC">&#8594; Elenco spin-off</text>
<text x="590" y="638" font-family="Titillium Web, sans-serif" font-size="11" fill="#0066CC">&#8594; Aggiungi spin-off</text>
<line x1="586" y1="646" x2="830" y2="646" stroke="#eeeeee" stroke-width="1"/>
<text x="586" y="659" font-family="Titillium Web, sans-serif" font-size="9" fill="#888888" font-weight="bold" letter-spacing="0.8">TASSONOMIE</text>
<text x="590" y="678" font-family="Titillium Web, sans-serif" font-size="11" fill="#0066CC">&#8594; Categorie</text>
<text x="590" y="693" font-family="Titillium Web, sans-serif" font-size="11" fill="#0066CC">&#8594; Tag</text>
<text x="590" y="708" font-family="Titillium Web, sans-serif" font-size="11" fill="#0066CC">&#8594; Settore attività</text>
<rect x="856" y="546" width="264" height="185" rx="5" fill="#00000018"/>
<rect x="854" y="543" width="264" height="185" rx="5" fill="white" stroke="#dddddd" stroke-width="1"/>
<path d="M 859,543 H 1113 Q 1118,543 1118,548 V 581 H 854 V 548 Q 854,543 859,543 Z" fill="#4A1777"/>
<text x="866" y="567" font-family="Titillium Web, sans-serif" font-size="12" font-weight="bold" fill="white">Sponsor</text>
<text x="864" y="604" font-family="Titillium Web, sans-serif" font-size="9" fill="#888888" font-weight="bold" letter-spacing="0.8">CONTENUTI</text>
<text x="868" y="623" font-family="Titillium Web, sans-serif" font-size="11" fill="#0066CC">&#8594; Elenco sponsor</text>
<text x="868" y="638" font-family="Titillium Web, sans-serif" font-size="11" fill="#0066CC">&#8594; Aggiungi sponsor</text>
<line x1="864" y1="646" x2="1108" y2="646" stroke="#eeeeee" stroke-width="1"/>
<text x="864" y="659" font-family="Titillium Web, sans-serif" font-size="9" fill="#888888" font-weight="bold" letter-spacing="0.8">TASSONOMIE</text>
<text x="868" y="678" font-family="Titillium Web, sans-serif" font-size="11" fill="#0066CC">&#8594; Categorie</text>
<text x="868" y="693" font-family="Titillium Web, sans-serif" font-size="11" fill="#0066CC">&#8594; Tag</text>
<rect x="22" y="745" width="264" height="185" rx="5" fill="#00000018"/>
<rect x="20" y="742" width="264" height="185" rx="5" fill="white" stroke="#dddddd" stroke-width="1"/>
<path d="M 25,742 H 279 Q 284,742 284,747 V 780 H 20 V 747 Q 20,742 25,742 Z" fill="#37474F"/>
<text x="32" y="766" font-family="Titillium Web, sans-serif" font-size="12" font-weight="bold" fill="white">Configurazione</text>
<text x="30" y="803" font-family="Titillium Web, sans-serif" font-size="9" fill="#888888" font-weight="bold" letter-spacing="0.8">CONTENUTI</text>
<text x="34" y="822" font-family="Titillium Web, sans-serif" font-size="11" fill="#0066CC">&#8594; Configurazione</text>
<rect x="300" y="745" width="264" height="185" rx="5" fill="#00000018"/>
<rect x="298" y="742" width="264" height="185" rx="5" fill="white" stroke="#dddddd" stroke-width="1"/>
<path d="M 303,742 H 557 Q 562,742 562,747 V 780 H 298 V 747 Q 298,742 303,742 Z" fill="#37474F"/>
<text x="310" y="766" font-family="Titillium Web, sans-serif" font-size="12" font-weight="bold" fill="white">Luoghi</text>
<text x="308" y="803" font-family="Titillium Web, sans-serif" font-size="9" fill="#888888" font-weight="bold" letter-spacing="0.8">CONTENUTI</text>
<text x="312" y="822" font-family="Titillium Web, sans-serif" font-size="11" fill="#0066CC">&#8594; Elenco luoghi</text>
<text x="312" y="837" font-family="Titillium Web, sans-serif" font-size="11" fill="#0066CC">&#8594; Aggiungi luogo</text>
<line x1="308" y1="845" x2="552" y2="845" stroke="#eeeeee" stroke-width="1"/>
<text x="308" y="858" font-family="Titillium Web, sans-serif" font-size="9" fill="#888888" font-weight="bold" letter-spacing="0.8">TASSONOMIE</text>
<text x="312" y="877" font-family="Titillium Web, sans-serif" font-size="11" fill="#0066CC">&#8594; Tipologia luogo</text>
</svg>